<?xml version="1.0" encoding="UTF-8" standalone="no"?>
<svg
   height="24"
   viewBox="0 -960 960 960"
   width="24"
   version="1.1"
   id="svg1"
   sodipodi:docname="close_red.svg"
   inkscape:version="1.3 (0e150ed6c4, 2023-07-21)"
   xmlns:inkscape="http://www.inkscape.org/namespaces/inkscape"
   xmlns:sodipodi="http://sodipodi.sourceforge.net/DTD/sodipodi-0.dtd"
   xmlns="http://www.w3.org/2000/svg"
   xmlns:svg="http://www.w3.org/2000/svg">
  <defs
     id="defs1" />
  <sodipodi:namedview
     id="namedview1"
     pagecolor="#ffffff"
     bordercolor="#000000"
     borderopacity="0.25"
     inkscape:showpageshadow="2"
     inkscape:pageopacity="0.0"
     inkscape:pagecheckerboard="0"
     inkscape:deskcolor="#d1d1d1"
     inkscape:zoom="32.375"
     inkscape:cx="11.984556"
     inkscape:cy="10.393822"
     inkscape:window-width="1920"
     inkscape:window-height="991"
     inkscape:window-x="-9"
     inkscape:window-y="-9"
     inkscape:window-maximized="1"
     inkscape:current-layer="svg1"
     showgrid="false" />
  <path
     d="M480-385 302-207q-20 20-48 20t-47-20q-20-20-20-47.5t20-47.5l178-178-178-179q-20-20-20-47.5t20-47.5q19-20 47-20t48 20l178 178 178-178q20-20 48-20t47 20q20 20 20 47.5T753-659L575-480l178 178q20 20 20 47.5T753-207q-19 20-47 20t-48-20L480-385Z"
     id="path1"
     style="fill:#000000" />
</svg>
