<?xml version="1.0" encoding="UTF-8" standalone="no"?>
<svg
   version="1.1"
   width="800"
   height="800"
   id="svg2"
   sodipodi:docname="runner.svg"
   inkscape:version="1.3 (0e150ed6c4, 2023-07-21)"
   xmlns:inkscape="http://www.inkscape.org/namespaces/inkscape"
   xmlns:sodipodi="http://sodipodi.sourceforge.net/DTD/sodipodi-0.dtd"
   xmlns="http://www.w3.org/2000/svg"
   xmlns:svg="http://www.w3.org/2000/svg">
  <defs
     id="defs2">
    <inkscape:path-effect
       effect="powerclip"
       id="path-effect12"
       is_visible="true"
       lpeversion="1"
       inverse="true"
       flatten="false"
       hide_clip="false"
       message="Use fill-rule evenodd on &lt;b&gt;fill and stroke&lt;/b&gt; dialog if no flatten result after convert clip to paths." />
    <inkscape:path-effect
       effect="powerclip"
       id="path-effect10"
       is_visible="true"
       lpeversion="1"
       inverse="true"
       flatten="false"
       hide_clip="false"
       message="Use fill-rule evenodd on &lt;b&gt;fill and stroke&lt;/b&gt; dialog if no flatten result after convert clip to paths." />
    <clipPath
       clipPathUnits="userSpaceOnUse"
       id="clipPath3">
      <rect
         style="fill:#ffffff;stroke-width:1.1;paint-order:markers stroke fill"
         id="rect4"
         width="105.11357"
         height="229.66887"
         x="602.28973"
         y="-386.46021" />
    </clipPath>
    <clipPath
       clipPathUnits="userSpaceOnUse"
       id="clipPath10">
      <path
         style="display:block;fill:#808080;fill-opacity:1;stroke:none;stroke-width:1.1;paint-order:markers stroke fill"
         d="m 2.67329,139.63067 143.74693,-159.79259 -375.56109,38.40399 34.91271,259.35162 z"
         id="path10" />
    </clipPath>
    <clipPath
       clipPathUnits="userSpaceOnUse"
       id="clipPath12">
      <path
         style="display:block;fill:#808080;fill-opacity:1;stroke:none;stroke-width:1.1;paint-order:markers stroke fill"
         d="M 531.24122,303.37824 603.5625,218.0625 893.76559,73.815461 869.82544,538.65337 532.66833,377.05736 Z"
         id="path12"
         sodipodi:nodetypes="cccccc" />
    </clipPath>
  </defs>
  <sodipodi:namedview
     id="namedview2"
     pagecolor="#ffffff"
     bordercolor="#000000"
     borderopacity="0.25"
     inkscape:showpageshadow="2"
     inkscape:pageopacity="0.0"
     inkscape:pagecheckerboard="0"
     inkscape:deskcolor="#d1d1d1"
     showgrid="false"
     inkscape:zoom="0.35443727"
     inkscape:cx="289.1908"
     inkscape:cy="536.061"
     inkscape:window-width="1920"
     inkscape:window-height="991"
     inkscape:window-x="-9"
     inkscape:window-y="-9"
     inkscape:window-maximized="1"
     inkscape:current-layer="svg2" />
  <path
     d="m 23.375,59.875 c -1.480188,42.88405 -34.193318,83.11506 -87.070312,82.25 C -120.95433,138.48227 -138.1114,92.081233 -142.30469,76.320312 -152.67016,29.604671 -119.78294,-21.363954 -65.621094,-25.058594 -14.037507,-26.201907 23.716831,11.481548 23.375,59.875 Z"
     fill="#ff4300"
     transform="translate(694.625,38.125)"
     id="path2"
     sodipodi:nodetypes="ccccc"
     style="display:none" />
  <g
     id="g13"
     transform="matrix(0.92678817,0,0,0.92678817,18.929587,58.390629)"
     style="fill:#ff4400;fill-opacity:1">
    <g
       id="g7"
       transform="matrix(1.0057311,0.8993997,-0.8993997,1.0057311,-198.87357,-220.06577)"
       style="fill:#ff4400;fill-opacity:1"
       inkscape:transform-center-x="-111.32767"
       inkscape:transform-center-y="-52.01135">
      <path
         d="m 686.0798,-261.10224 c -1.48019,42.88405 -34.19332,83.11506 -87.07031,82.25 -57.25902,-3.64273 -74.41609,-50.04377 -78.60938,-65.80469 -10.36547,-46.71564 22.52175,-97.68427 76.6836,-101.37891 51.58358,-1.14331 89.33792,36.54014 88.99609,84.9336 z"
         fill="#ff4300"
         id="path6"
         sodipodi:nodetypes="ccccc"
         style="display:inline;fill:#ff4400;fill-opacity:1;stroke:none"
         clip-path="url(#clipPath3)" />
      <rect
         style="fill:#ff4400;fill-opacity:1;stroke:none;stroke-width:1.17953;paint-order:markers stroke fill"
         id="rect6"
         width="43.305069"
         height="167.18056"
         x="566.62738"
         y="-346.0191"
         ry="5.6427474" />
    </g>
    <path
       d="m 366.11216,143.01164 c 1.6154,-0.005 3.2308,-0.0124 4.8462,-0.0217 4.3765,-0.0185 8.7525,-0.006 13.129,0.0141 4.593,0.0164 9.186,0.008 13.779,0.002 7.7188,-0.005 15.4373,0.0113 23.156,0.0393 8.8971,0.032 17.79389,0.0321 26.69111,0.0148 8.58305,-0.0159 17.16594,-0.009 25.74897,0.008 3.64004,0.007 7.27995,0.006 10.91999,-0.002 4.29955,-0.008 8.59861,0.005 12.89807,0.0318 1.56839,0.007 3.13682,0.007 4.70521,-2.2e-4 23.01571,-0.0942 36.39014,9.24955 52.39548,24.71648 2.65748,2.5505 5.36938,5.03399 8.0918,7.51514 4.09334,3.73932 8.1775,7.48801 12.25,11.25 l 1.63745,1.51245 c 1.0947,1.01125 2.18934,2.02256 3.28394,3.03393 2.17201,2.00658 4.34487,4.01225 6.51782,6.01782 1.08422,1.00074 2.16837,2.00155 3.25244,3.00245 2.68233,2.47646 5.3655,4.952 8.05054,7.42553 5.81331,5.35744 11.60797,10.73391 17.38281,16.13282 6.44201,6.0205 12.91849,12.00038 19.4375,17.9375 l 2.89453,2.64452 2.73047,2.48047 2.41406,2.19532 c 2.52886,2.16615 3.75022,2.64597 7.08594,3.17968 4.04157,-0.52149 4.6396,-0.8077 7.46851,-3.39087 l 2.11984,-1.93533 c 4.28714,-4.07556 8.48758,-8.23273 12.66556,-12.41989 0.98056,-0.97988 1.96127,-1.95962 2.94212,-2.93922 2.04297,-2.04151 4.08415,-4.08479 6.12404,-6.12938 2.59413,-2.59983 5.19272,-5.19514 7.79269,-7.78912 2.02232,-2.01868 4.04221,-4.03976 6.06142,-6.06155 1.41598,-1.41696 2.83395,-2.83193 4.25198,-4.24685 4.4986,-4.51481 8.85871,-9.08389 13.01154,-13.91919 11.3407,-13.16566 24.53451,-26.8721 42.4373,-29.66859 15.03591,-1.0146 27.91883,1.3745 40,11 8.57323,7.7656 16.17997,18.19927 17.177,30.11547 0.56995,21.05184 -4.88649,32.52098 -19.177,47.88452 -3.70355,3.8412 -7.46514,7.62251 -11.23608,11.39722 -1.09858,1.10322 -2.19696,2.20663 -3.29517,3.31021 -2.95417,2.96715 -5.91154,5.93108 -8.86997,8.89398 -1.85373,1.85668 -3.70688,3.71394 -5.55986,5.57136 -5.8144,5.82804 -11.63078,11.6541 -17.45006,17.47727 -6.68812,6.6926 -13.36964,13.39171 -20.04552,20.09652 -5.18393,5.2056 -10.37366,10.40536 -15.56776,15.6008 -3.09238,3.09342 -6.18233,6.18918 -9.26623,9.29105 -2.8999,2.91647 -5.80699,5.82558 -8.71955,8.72941 -1.06111,1.06035 -2.11971,2.12321 -3.17545,3.18891 -13.20066,13.31773 -25.68614,21.91947 -44.81435,22.44327 -20.86313,-1.09565 -32.54707,-13.24001 -46.44141,-27.24609 -1.37675,-1.38049 -2.75395,-2.76053 -4.13157,-4.14015 -3.59975,-3.60733 -7.19344,-7.22062 -10.78585,-10.83525 -3.67684,-3.69742 -7.35945,-7.38907 -11.04156,-11.08124 -7.20549,-7.22684 -14.40458,-14.46001 -21.59961,-21.69727 -4.16638,1.63449 -6.94137,4.68142 -10.01855,7.80738 l -1.79532,1.7993 c -1.95731,1.96379 -3.90754,3.93446 -5.85801,5.90504 -1.36466,1.37094 -2.72984,2.74136 -4.09552,4.11128 -3.59819,3.6115 -7.19078,7.22852 -10.78179,10.84716 -5.73188,5.77495 -11.47035,11.54333 -17.21226,17.3083 -1.99641,2.00655 -3.98932,4.01653 -5.9819,6.02689 -5.42883,5.46463 -10.8306,10.88337 -16.70691,15.87323 -2.04166,1.74087 -3.94224,3.60053 -5.83099,5.50502 l -2.10938,2.11914 -2.10937,2.13476 -2.20312,2.2168 c -1.76797,1.7796 -3.53354,3.56151 -5.29688,5.3457 1.53674,3.64848 3.72126,5.96095 6.51697,8.73729 l 1.39921,1.39798 c 1.54603,1.5423 3.09909,3.07734 4.65218,4.61254 1.11079,1.10531 2.22111,2.21108 3.33101,3.31729 2.38991,2.3802 4.78284,4.75731 7.1781,7.13214 3.78716,3.75534 7.56614,7.51883 11.34379,11.28374 9.38404,9.34995 18.77734,18.69058 28.17548,28.02635 7.3042,7.25575 14.6052,14.51466 21.8957,21.78419 3.75476,3.74323 7.51636,7.47941 11.28322,11.21047 2.34187,2.32268 4.67746,4.65159 7.01135,6.98229 1.08338,1.07936 2.16935,2.15613 3.25807,3.23011 1.48634,1.46692 2.96314,2.94284 4.43795,4.42134 l 2.5117,2.49544 c 3.90814,4.61669 4.33495,8.4055 4.00527,14.36883 -0.35215,2.48497 -0.76714,4.9615 -1.23021,7.42821 l -0.40149,2.16764 c -0.44287,2.38254 -0.89471,4.76329 -1.34657,7.14414 -0.32091,1.71613 -0.64127,3.43237 -0.96111,5.1487 -0.87094,4.66489 -1.7497,9.32828 -2.62983,13.99145 -0.92924,4.93079 -1.85125,9.86293 -2.77407,14.79493 -1.75854,9.39252 -3.52354,18.78381 -5.29085,28.17469 -2.1686,11.52494 -4.32878,23.05145 -6.48892,34.57798 -2.26331,12.07646 -4.5282,24.15262 -6.80185,36.22714 -0.72027,3.8258 -1.44046,7.65161 -2.16055,11.47745 l -0.52485,2.7883 c -2.14708,11.41082 -4.26946,22.82561 -6.35503,34.24783 -0.41888,2.28226 -0.8379,4.56449 -1.2571,6.8467 -0.71703,3.90379 -1.42275,7.80935 -2.12045,11.71664 -3.16598,17.42641 -8.55398,34.08651 -23.26259,45.24477 -14.01593,9.29123 -28.67567,12.64113 -45.39453,10.02343 -14.12142,-3.32776 -26.73955,-11.19688 -34.8125,-23.375 -10.68993,-17.94033 -10.05823,-35.26479 -6.76903,-55.27563 0.2603,-1.63073 0.5197,-3.26161 0.7782,-4.89263 0.5542,-3.48476 1.1144,-6.96848 1.6796,-10.45149 0.8931,-5.50733 1.77012,-11.01715 2.6447,-16.52745 2.17256,-13.67233 4.36594,-27.34131 6.56375,-41.0096 1.71259,-10.65216 3.4194,-21.30518 5.1086,-31.96109 0.86927,-5.47926 1.75057,-10.95641 2.641,-16.43227 0.54989,-3.39793 1.08915,-6.79748 1.62546,-10.19758 0.2511,-1.57775 0.50663,-3.1548 0.76687,-4.73107 0.3541,-2.14853 0.69238,-4.29898 1.0268,-6.45065 l 0.5866,-3.64717 c 0.21363,-4.07129 -0.79367,-5.86255 -3.42476,-8.84426 l -1.8645,-1.81348 -2.07227,-2.03906 -2.16602,-2.10157 c -4.73172,-4.61332 -9.26797,-9.27906 -13.57743,-14.29004 -2.9263,-3.30552 -6.0842,-6.37041 -9.2351,-9.45996 -4.3458,-4.29952 -8.5606,-8.60331 -12.5,-13.28125 -3.6706,-4.07209 -7.6303,-7.86715 -11.5246,-11.72387 -3.7156,-3.69338 -7.2704,-7.43629 -10.6472,-11.4441 -4.3708,-4.90304 -9.1508,-9.44258 -13.8282,-14.05078 -2.8649,1.28949 -4.8134,2.59502 -6.9257,4.91407 l -1.6407,1.78125 -1.7461,1.92968 c -1.2561,1.36749 -2.5127,2.73467 -3.7695,4.10157 l -1.9595,2.1416 c -3.1259,3.40257 -6.2931,6.76604 -9.4585,10.13183 -4.8412,5.15928 -9.6745,10.32597 -14.5,15.5 -6.6904,7.17309 -13.3979,14.33003 -20.1089,21.48389 -1.8819,2.00638 -3.7635,4.01312 -5.645,6.02002 l -1.8752,2.00024 c -1.2428,1.32587 -2.4855,2.65188 -3.728,3.97803 -3.2207,3.43688 -6.4447,6.8705 -9.6741,10.29907 l -2.0137,2.14063 c -1.2554,1.33439 -2.5118,2.66781 -3.7695,4 l -1.7481,1.85937 -1.7265,1.83203 c -1.1774,1.29834 -2.3166,2.63199 -3.4219,3.99219 l -1.7266,2.11328 -1.4961,1.9043 c -5.5005,4.99623 -11.3021,6.47127 -18.5649,6.37816 l -2.4781,0.0168 c -2.7205,0.0135 -5.4401,-10e-4 -8.1606,-0.0163 -1.9587,0.004 -3.9174,0.009 -5.8762,0.0164 -5.3082,0.0139 -10.6162,0.003 -15.9244,-0.0137 -5.5682,-0.0139 -11.1363,-0.007 -16.7045,-0.004 -9.3562,0.003 -18.7124,-0.0108 -28.0686,-0.034 -10.7904,-0.0266 -21.5806,-0.0284 -32.371,-0.0166 -10.4042,0.0108 -20.8084,0.005 -31.2127,-0.01 -4.4151,-0.006 -8.8302,-0.006 -13.2453,-9.4e-4 -5.2122,0.005 -10.4241,-0.005 -15.6362,-0.0269 -1.9034,-0.006 -3.8068,-0.006 -5.7102,-10e-4 -19.3923,0.0448 -36.2918,-2.13997 -50.9301,-16.1927 l -2.1836,-2.21875 -1.7773,-1.78125 c -8.9492,-9.65508 -12.8117,-22.59228 -12.6602,-35.53125 l 0.023,-2.7727 c 0.3339,-13.80628 5.3049,-25.9304 14.6021,-36.19605 16.2718,-15.43015 34.2996,-18.01742 55.7727,-17.68603 2.5825,0.0294 5.165,0.0581 7.7475,0.0863 l 2.0364,0.0243 c 8.6698,0.10191 17.34,0.12503 26.0104,0.15312 8.4181,0.0278 16.8343,0.0798 25.2516,0.20752 6.717,0.10177 13.432,0.14968 20.1497,0.13578 3.5435,-0.005 7.0822,0.0149 10.6247,0.1009 15.9121,0.94304 15.9121,0.94304 30.0186,-5.04155 3.1114,-3.04662 5.6784,-6.33625 8.059,-9.97566 1.4411,-2.17493 3.118,-4.06495 4.8919,-5.97338 l 1.5469,-1.79687 c 2.1967,-2.51925 4.45,-4.98416 6.7031,-7.45313 2.8647,-3.14083 5.7118,-6.291 8.5,-9.5 3.6294,-4.17729 7.3648,-8.25537 11.0937,-12.34375 1.9928,-2.19977 3.9597,-4.4158 5.9063,-6.65625 3.6294,-4.17729 7.3648,-8.25537 11.0937,-12.34375 1.9928,-2.19977 3.9597,-4.4158 5.9063,-6.65625 3.6294,-4.17729 7.3648,-8.25537 11.0937,-12.34375 1.9928,-2.19977 3.9597,-4.4158 5.9063,-6.65625 3.6294,-4.17729 7.3648,-8.25537 11.0937,-12.34375 1.9928,-2.19977 3.9597,-4.4158 5.9063,-6.65625 3.6294,-4.17729 7.3648,-8.25537 11.0937,-12.34375 1.9928,-2.19977 3.9597,-4.4158 5.9063,-6.65625 3.6294,-4.17729 7.3648,-8.25537 11.0937,-12.34375 1.9928,-2.19977 3.9597,-4.4158 5.9063,-6.65625 3.6294,-4.17729 7.3648,-8.25537 11.0937,-12.34375 1.9928,-2.19977 3.9597,-4.4158 5.9063,-6.65625 3.6294,-4.17729 7.3648,-8.25537 11.0937,-12.34375 1.9928,-2.19977 3.9597,-4.4158 5.9063,-6.65625 3.6294,-4.17729 7.3648,-8.25537 11.0937,-12.34375 2.5565,-2.82212 5.0617,-5.6839 7.5586,-8.55859 3.0591,-3.47296 6.1929,-6.87775 9.3203,-10.28906 2.898,-3.22044 5.7079,-6.51922 8.5274,-9.80859 l -32,3.00042 c -1.4929,1.70411 -1.4929,1.70411 -3.2304,3.39063 l -1.9231,1.88794 -2.034,1.97143 c -4.5649,4.48762 -9.0137,8.96795 -13.1445,13.86328 -2.9242,3.30774 -6.1222,6.34755 -9.2617,9.44922 -2.0608,2.08751 -4.0014,4.2092 -5.9063,6.4375 -3.4845,4.07624 -7.2808,7.79551 -11.0937,11.5625 -2.0608,2.08751 -4.0014,4.2092 -5.9063,6.4375 -3.4845,4.07624 -7.2808,7.79551 -11.0937,11.5625 -2.0608,2.08751 -4.0014,4.2092 -5.9063,6.4375 -3.4835,4.07511 -7.2742,7.79632 -11.0976,11.55078 -2.093,2.1338 -3.9659,4.31342 -5.8399,6.63672 -7.0667,8.17304 -17.9063,13.96936 -28.688,15.01953 -8.875,0.5311 -17.638,0.48516 -25.8745,-3.20703 l -2.2461,-0.99609 c -11.6925,-5.8564 -20.0396,-15.25979 -24.6289,-27.44141 -3.5222,-13.37184 -1.9085,-28.29279 4.3828,-40.48437 5.2657,-8.86584 12.5043,-15.42376 20.2618,-22.06641 2.8492,-2.56979 5.5348,-5.28255 8.2304,-8.01172 3.8299,-3.87729 7.7205,-7.56243 11.875,-11.09374 2.819,-2.52876 5.4644,-5.21271 8.125,-7.90625 3.8299,-3.87728 7.7205,-7.56244 11.875,-11.09375 2.819,-2.52876 5.4644,-5.21271 8.125,-7.90625 3.8299,-3.87728 7.7205,-7.56244 11.875,-11.09375 3.3736,-3.02627 6.5171,-6.27836 9.701,-9.50171 3.3299,-3.35515 6.7633,-6.5018 10.3654,-9.5647 2.6236,-2.34479 5.0885,-4.83615 7.5586,-7.33984 3.6452,-3.69475 7.3813,-7.19013 11.336,-10.55079 3.3812,-3.04556 6.54,-6.31559 9.6892,-9.59936 1.4562,-1.49162 2.9605,-2.91739 4.4748,-4.34985 l 2.7001,-2.63976 c 5.8311,-4.05524 13.3196,-3.04631 20.1266,-2.99135 z"
       fill="#ff4400"
       id="path8"
       sodipodi:nodetypes="ccccccccccccsccssccccccccccccccccccccccscsccccccccccccccccccccccccccccccsccccccccccccccsssccscccccccccccccccccccccccccccccccccsccccccccccccccccccccccccccccccccccccccccscscscscscscscscsccccccccccscscsccccccccccscscccsccccc"
       style="fill:#ff4400;fill-opacity:1" />
  </g>
</svg>
